<?xml version="1.0" encoding="UTF-8"?>
<!-- Generator: Adobe Illustrator 16.0.0, SVG Export Plug-In . SVG Version: 6.00 Build 0)  -->
<!DOCTYPE svg PUBLIC "-//W3C//DTD SVG 1.1//EN" "http://www.w3.org/Graphics/SVG/1.1/DTD/svg11.dtd">
<svg version="1.1" id="Livello_1" xmlns="http://www.w3.org/2000/svg" xmlns:xlink="http://www.w3.org/1999/xlink" x="0px" y="0px" width="124px" height="118.697px" viewBox="0 0 124 118.697" enable-background="new 0 0 124 118.697" xml:space="preserve">
<g>
	<g>
		<path fill="#AA1578" d="M69.439,0H56.828L17.595,84.067l6.271,9.409h12.49l8.994-19.301h35.194l9.381,19.301h12.473l6.271-9.409    L69.439,0z M105.291,82.713h-8.282L59.574,2.488h8.28L105.291,82.713z M70.403,52.871H55.095l7.645-16.164L70.403,52.871z     M53.917,55.361h27.581l2.812,6.025H51.07L53.917,55.361z M57.619,4.188l22.717,48.683h-7.18l-15.4-32.484L24.358,89.725    l-3.915-5.873L57.619,4.188z M43.764,71.686l-8.998,19.301h-8.252L57.74,26.16l3.618,7.639l-14.221,30.08h38.334l9.318,19.973    l-3.919,5.881L82.1,71.686H43.764z M101.065,90.986H93.03l3.853-5.783h8.036L101.065,90.986z"/>
	</g>
	<g>
		<path fill="#AA1578" d="M5.197,107.979L0.824,117.99h2.127l0.981-2.311H8.22l0.972,2.311h2.18L7,107.979H5.197z M7.445,113.822    H4.709l1.366-3.18L7.445,113.822z"/>
		<path fill="#AA1578" d="M18.43,113.107c-0.282-0.246-0.614-0.441-1.016-0.6c-0.404-0.162-0.862-0.305-1.361-0.432    c-0.444-0.106-0.821-0.209-1.117-0.312c-0.283-0.093-0.503-0.192-0.658-0.299c-0.132-0.088-0.226-0.189-0.284-0.311    c-0.051-0.105-0.074-0.238-0.074-0.432c0-0.263,0.108-0.479,0.336-0.662c0.244-0.194,0.584-0.288,1.038-0.288    c0.413,0,0.818,0.077,1.23,0.239c0.417,0.165,0.837,0.402,1.252,0.709l0.151,0.111l1.119-1.569l-0.137-0.109    c-0.525-0.413-1.059-0.714-1.636-0.923c-0.577-0.212-1.235-0.32-1.958-0.32c-0.487,0-0.949,0.074-1.373,0.215    c-0.413,0.145-0.777,0.348-1.08,0.605c-0.308,0.258-0.542,0.562-0.722,0.934c-0.177,0.365-0.267,0.771-0.267,1.236    c0,0.451,0.078,0.854,0.231,1.199c0.165,0.351,0.385,0.629,0.673,0.852c0.278,0.227,0.634,0.421,1.052,0.577    c0.4,0.151,0.867,0.29,1.388,0.411c0.442,0.1,0.792,0.194,1.069,0.295c0.265,0.094,0.471,0.197,0.61,0.303    c0.134,0.101,0.223,0.202,0.27,0.309c0.049,0.097,0.068,0.215,0.068,0.404c0,0.311-0.12,0.541-0.379,0.727    c-0.272,0.195-0.651,0.293-1.129,0.293c-0.569,0-1.085-0.102-1.536-0.304c-0.467-0.212-0.927-0.516-1.366-0.896l-0.143-0.123    l-1.249,1.482l0.133,0.119c0.594,0.535,1.247,0.936,1.937,1.193c0.693,0.258,1.429,0.389,2.186,0.389    c0.515,0,0.997-0.068,1.432-0.199c0.439-0.134,0.821-0.334,1.136-0.596c0.321-0.258,0.567-0.574,0.754-0.967    c0.178-0.381,0.267-0.811,0.267-1.309c0-0.41-0.072-0.783-0.216-1.109C18.918,113.627,18.706,113.345,18.43,113.107z"/>
		<path fill="#AA1578" d="M27.942,115.048c-0.399,0.371-0.806,0.667-1.21,0.882c-0.382,0.207-0.86,0.312-1.412,0.312    c-0.43,0-0.827-0.084-1.188-0.25s-0.68-0.398-0.947-0.688c-0.267-0.293-0.47-0.627-0.624-1.027    c-0.143-0.4-0.217-0.825-0.217-1.284c0-0.431,0.074-0.854,0.216-1.246c0.154-0.393,0.362-0.733,0.625-1.016    c0.267-0.286,0.586-0.515,0.948-0.682c0.358-0.165,0.756-0.25,1.187-0.25c0.521,0,0.968,0.101,1.376,0.308    c0.417,0.213,0.8,0.483,1.177,0.832l0.139,0.131l1.323-1.521l-0.126-0.121c-0.224-0.217-0.473-0.426-0.743-0.621    c-0.261-0.184-0.55-0.348-0.869-0.49c-0.315-0.137-0.664-0.246-1.03-0.32c-0.364-0.074-0.78-0.113-1.235-0.113    c-0.754,0-1.452,0.138-2.066,0.408c-0.625,0.264-1.171,0.637-1.627,1.105c-0.452,0.461-0.81,1.01-1.066,1.631    c-0.252,0.613-0.38,1.282-0.38,2.021c0,0.707,0.131,1.38,0.386,1.999c0.259,0.626,0.619,1.171,1.07,1.623    c0.449,0.46,0.988,0.825,1.596,1.089c0.613,0.262,1.292,0.397,2.02,0.397c0.451,0,0.877-0.041,1.266-0.118    c0.376-0.082,0.732-0.202,1.06-0.36c0.319-0.153,0.624-0.34,0.897-0.551c0.283-0.212,0.55-0.458,0.801-0.726l0.118-0.131    l-1.332-1.344L27.942,115.048z"/>
		<path fill="#AA1578" d="M38.952,109.391c-0.446-0.46-0.995-0.831-1.63-1.1c-0.63-0.271-1.338-0.408-2.1-0.408    c-0.761,0-1.467,0.141-2.095,0.412c-0.63,0.271-1.167,0.633-1.647,1.113c-0.469,0.475-0.831,1.023-1.078,1.633    c-0.254,0.62-0.384,1.285-0.384,2.008c0,0.692,0.13,1.357,0.384,1.977c0.25,0.617,0.609,1.165,1.066,1.625    c0.445,0.461,0.994,0.831,1.629,1.102c0.634,0.268,1.342,0.405,2.098,0.405c0.764,0,1.47-0.139,2.096-0.412    c0.634-0.273,1.173-0.637,1.649-1.115c0.464-0.472,0.831-1.022,1.083-1.633c0.25-0.622,0.376-1.288,0.376-2.004    c0-0.687-0.127-1.353-0.377-1.978C39.767,110.395,39.404,109.849,38.952,109.391z M35.222,116.242    c-0.443,0-0.857-0.087-1.229-0.257c-0.377-0.171-0.695-0.396-0.975-0.687c-0.275-0.303-0.485-0.648-0.624-1.023    c-0.15-0.393-0.228-0.816-0.228-1.282c0-0.439,0.078-0.858,0.228-1.249c0.142-0.379,0.352-0.72,0.622-1.013    c0.266-0.287,0.587-0.515,0.951-0.682c0.379-0.169,0.781-0.25,1.229-0.25s0.863,0.085,1.23,0.257    c0.378,0.17,0.695,0.396,0.976,0.688c0.271,0.295,0.481,0.637,0.624,1.021c0.151,0.393,0.228,0.816,0.228,1.283    c0,0.438-0.077,0.857-0.228,1.246c-0.143,0.378-0.35,0.721-0.621,1.014c-0.265,0.289-0.588,0.518-0.951,0.682    C36.072,116.16,35.671,116.242,35.222,116.242z"/>
		<polygon fill="#AA1578" points="43.835,108.048 41.795,108.048 41.795,117.99 48.866,117.99 48.866,116.106 43.835,116.106   "/>
		<polygon fill="#AA1578" points="47.939,109.977 50.976,109.977 50.976,117.99 53.04,117.99 53.04,109.977 56.079,109.977     56.079,108.048 47.939,108.048   "/>
		<path fill="#AA1578" d="M65.451,109.391c-0.448-0.463-0.997-0.833-1.63-1.1c-0.633-0.271-1.34-0.408-2.097-0.408    c-0.764,0-1.47,0.141-2.097,0.412c-0.624,0.268-1.179,0.644-1.648,1.113c-0.467,0.473-0.828,1.021-1.077,1.634    c-0.255,0.621-0.384,1.288-0.384,2.007c0,0.69,0.129,1.355,0.383,1.977c0.252,0.619,0.611,1.166,1.066,1.625    c0.45,0.464,0.999,0.832,1.632,1.102c0.632,0.268,1.334,0.405,2.096,0.405c0.764,0,1.467-0.139,2.095-0.412    c0.633-0.271,1.173-0.637,1.65-1.115c0.463-0.47,0.827-1.021,1.078-1.632c0.254-0.619,0.384-1.285,0.384-2.005    c0-0.69-0.13-1.356-0.384-1.978C66.264,110.398,65.903,109.852,65.451,109.391z M61.724,116.242c-0.446,0-0.859-0.087-1.23-0.257    c-0.378-0.171-0.698-0.396-0.975-0.687c-0.272-0.299-0.484-0.641-0.628-1.023c-0.15-0.392-0.225-0.814-0.225-1.282    c0-0.439,0.075-0.862,0.225-1.246c0.146-0.386,0.356-0.727,0.625-1.016c0.264-0.286,0.583-0.515,0.948-0.682    c0.378-0.169,0.783-0.25,1.231-0.25c0.45,0,0.863,0.085,1.233,0.257c0.378,0.17,0.695,0.396,0.971,0.689    c0.273,0.293,0.483,0.635,0.626,1.02c0.152,0.394,0.229,0.816,0.229,1.283c0,0.438-0.076,0.856-0.229,1.246    c-0.139,0.375-0.35,0.716-0.619,1.014c-0.27,0.289-0.59,0.519-0.956,0.682C62.571,116.16,62.169,116.242,61.724,116.242z"/>
		<path fill="#AA1578" d="M75.853,107.979l-4.374,10.011h2.129l0.98-2.311h4.289l0.97,2.311h2.183l-4.374-10.011H75.853z     M78.1,113.822h-2.734l1.364-3.18L78.1,113.822z"/>
		<polygon fill="#AA1578" points="81.014,109.977 84.051,109.977 84.051,117.99 86.118,117.99 86.118,109.977 89.157,109.977     89.157,108.048 81.014,108.048   "/>
		<polygon fill="#AA1578" points="90.018,109.977 93.053,109.977 93.053,117.99 95.118,117.99 95.118,109.977 98.157,109.977     98.157,108.048 90.018,108.048   "/>
		<rect x="99.662" y="108.048" fill="#AA1578" width="2.037" height="9.942"/>
		<polygon fill="#AA1578" points="108.15,115.084 105.387,108.048 103.124,108.048 107.257,118.061 108.981,118.061     113.113,108.048 110.891,108.048   "/>
		<path fill="#AA1578" d="M123.19,111.016c-0.254-0.617-0.614-1.164-1.068-1.625c-0.453-0.466-1.003-0.834-1.633-1.1    c-0.625-0.271-1.33-0.408-2.098-0.408c-0.759,0-1.465,0.141-2.094,0.412c-0.627,0.271-1.182,0.645-1.646,1.113    c-0.467,0.475-0.828,1.023-1.078,1.633c-0.256,0.625-0.387,1.292-0.387,2.008c0,0.688,0.131,1.355,0.387,1.977    c0.25,0.611,0.607,1.158,1.064,1.627c0.453,0.463,1.002,0.832,1.632,1.1c0.632,0.268,1.336,0.405,2.098,0.405    c0.76,0,1.466-0.139,2.097-0.412c0.633-0.274,1.186-0.647,1.645-1.112c0.463-0.471,0.828-1.02,1.082-1.635    c0.254-0.619,0.383-1.285,0.383-2.005C123.573,112.303,123.444,111.637,123.19,111.016z M118.391,116.242    c-0.441,0-0.853-0.087-1.227-0.257c-0.38-0.171-0.697-0.397-0.973-0.691c-0.27-0.283-0.48-0.626-0.631-1.019    c-0.15-0.395-0.227-0.816-0.227-1.282c0-0.437,0.076-0.857,0.226-1.246c0.151-0.388,0.362-0.73,0.628-1.018    c0.264-0.285,0.582-0.513,0.954-0.68c0.374-0.169,0.774-0.25,1.225-0.25c0.449,0,0.859,0.085,1.231,0.257    c0.377,0.17,0.693,0.396,0.971,0.689c0.268,0.287,0.481,0.631,0.629,1.02c0.15,0.391,0.225,0.813,0.225,1.283    c0,0.442-0.074,0.861-0.225,1.246c-0.147,0.383-0.358,0.727-0.628,1.016c-0.263,0.287-0.583,0.516-0.95,0.682    C119.246,116.16,118.842,116.242,118.391,116.242z"/>
	</g>
</g>
</svg>